#!OML:ASF F:\VICON\USERDATA\INSTALL\rory3\rory3.ASF
:FULLY-SPECIFIED
:DEGREES
137
root 0.836939 14.0322 -18.5925 18.6515 1.39037 -1.80999
lowerback 29.3503 0.230804 1.0063
upperback 4.13623 0.873111 2.02976
thorax -11.5951 0.404796 1.40378
lowerneck -28.1677 -4.96796 -7.42747
upperneck -8.50784 -4.40765 10.5666
head 2.05322 -1.5392 4.14669
rclavicle -1.98785e-015 -1.23246e-014
rhumerus -14.9975 1.63865 -78.7109
rradius 88.0384
rwrist -4.7876
rhand -22.6455 28.8328
rfingers 7.12502
rthumb 3.78541 -1.1133
lclavicle -1.98785e-015 -1.23246e-014
lhumerus -15.3201 5.76595 84.9778
lradius 93.0311
lwrist 1.69806
lhand -27.4402 22.5541
lfingers 7.12502
lthumb -0.845266 52.5322
rfemur -66.9167 -2.8207 24.8816
rtibia 88.3294
rfoot -30.6839 -15.6518
rtoes -13.4891
lfemur -69.8299 5.38357 -16.3654
ltibia 88.8131
lfoot -31.1906 -0.22772
ltoes -13.902
138
root 0.835062 14.0692 -18.5549 18.1703 1.79429 -1.8159
lowerback 29.1724 0.112712 1.28548
upperback 4.16967 0.810072 2.06865
thorax -11.4611 0.366069 1.30923
lowerneck -28.2303 -5.00213 -7.33806
upperneck -8.64375 -4.4656 10.6733
head 2.02715 -1.56459 4.16177
rclavicle 9.93923e-016 3.97569e-015
rhumerus -15.3785 1.614 -77.6652
rradius 90.4109
rwrist -6.04344
rhand -22.096 28.7064
rfingers 7.12502
rthumb 4.3161 -1.22958
lclavicle 9.93923e-016 3.97569e-015
lhumerus -14.5145 5.37507 84.3722
lradius 95.2057
lwrist 1.67284
lhand -26.5107 17.0998
lfingers 7.12502
lthumb 0.0524912 47.0795
rfemur -65.8605 -2.94171 24.8747
rtibia 87.9634
rfoot -30.8984 -15.902
rtoes -12.5709
lfemur -68.8932 4.84324 -16.1473
ltibia 88.3856
lfoot -31.2016 -0.0553206
ltoes -13.6231
139
root 0.834735 14.1135 -18.5124 17.8564 2.06767 -1.83265
lowerback 28.7013 0.0655945 1.40883
upperback 4.12678 0.789974 2.16665
thorax -11.2696 0.355335 1.35521
lowerneck -28.2885 -5.00922 -7.27576
upperneck -8.53703 -4.49471 10.6368
head 2.06674 -1.57835 4.13576
rclavicle 3.37934e-015 -2.38542e-015
rhumerus -15.4833 1.66175 -76.4349
rradius 92.7065
rwrist -6.98123
rhand -21.1684 28.3066
rfingers 7.12502
rthumb 5.21176 -1.60933
lclavicle 3.37934e-015 -2.38542e-015
lhumerus -13.6966 5.12078 83.6628
lradius 97.5174
lwrist 0.966858
lhand -26.3286 15.7792
lfingers 7.12502
lthumb 0.228373 45.7589
rfemur -64.9455 -2.91527 24.8247
rtibia 87.4515
rfoot -30.9667 -16.0645
rtoes -11.4535
lfemur -68.0829 4.38853 -15.9908
ltibia 87.87
lfoot -31.2614 0.17671
ltoes -13.981
140
root 0.82302 14.1727 -18.4731 17.5077 2.30281 -1.76363
lowerback 28.376 0.0784529 1.29726
upperback 3.97078 0.780975 2.25384
thorax -11.2858 0.359035 1.52228
lowerneck -28.3385 -5.00012 -7.26154
upperneck -8.12478 -4.50938 10.6301
head 2.20165 -1.57773 4.12584
rclavicle -7.95139e-015 -1.94809e-014
rhumerus -15.4309 1.70892 -75.0865
rradius 94.9486
rwrist -7.28036
rhand -20.1326 27.6228
rfingers 7.12502
rthumb 6.21181 -2.26617
lclavicle -7.95139e-015 -1.94809e-014
lhumerus -13.0401 4.83115 82.5994
lradius 100.077
lwrist 0.168259
lhand -27.0884 15.911
lfingers 7.12502
lthumb -0.505449 45.8902
rfemur -63.996 -2.84292 24.7288
rtibia 86.7901
rfoot -30.8877 -16.2503
rtoes -10.6278
lfemur -67.1009 3.95159 -15.8706
ltibia 87.1515
lfoot -31.277 0.485003
ltoes -14.7323
141
root 0.810525 14.2459 -18.4354 17.0708 2.63706 -1.78701
lowerback 28.1687 0.0786659 1.31786
upperback 3.85721 0.799715 2.35707
thorax -11.3121 0.370246 1.62092
lowerneck -28.4826 -5.00233 -7.11539
upperneck -7.71122 -4.56961 10.4622
head 2.34157 -1.60795 4.0377
rclavicle 9.14409e-015 2.62396e-014
rhumerus -15.3323 1.54112 -73.5982
rradius 97.4621
rwrist -6.76838
rhand -19.217 27.1758
rfingers 7.12502
rthumb 7.09572 -2.68529
lclavicle 9.14409e-015 2.62396e-014
lhumerus -12.0902 4.51745 81.286
lradius 102.693
lwrist -0.461866
lhand -27.3024 16.0952
lfingers 7.12502
lthumb -0.71211 46.0738
rfemur -62.8633 -2.83866 24.7826
rtibia 85.9666
rfoot -30.7222 -16.4357
rtoes -10.2718
lfemur -65.9218 3.4498 -15.5632
ltibia 86.2722
lfoot -31.1979 0.460348
ltoes -14.315
142
root 0.803262 14.3394 -18.3904 16.605 2.9639 -1.60234
lowerback 27.9574 0.080126 1.20897
upperback 3.71949 0.777663 2.42304
thorax -11.364 0.367753 1.76734
lowerneck -28.6891 -5.08458 -7.01104
upperneck -7.09891 -4.72975 10.2242
head 2.55632 -1.68654 3.92094
rclavicle -5.56597e-015 -1.63003e-014
rhumerus -15.303 1.32469 -71.8708
rradius 100.054
rwrist -5.7953
rhand -18.3588 27.1792
rfingers 7.12502
rthumb 7.92406 -2.65229
lclavicle -5.56597e-015 -1.63003e-014
lhumerus -10.9776 4.27195 79.7487
lradius 105.36
lwrist -0.525258
lhand -26.5898 16.0374
lfingers 7.12502
lthumb -0.0239137 46.0171
rfemur -61.4961 -2.98733 24.5886
rtibia 84.9637
rfoot -30.5874 -16.6429
rtoes -10.2706
lfemur -64.5068 2.77217 -15.486
ltibia 85.1852
lfoot -30.9887 0.489577
ltoes -14.09
143
root 0.794131 14.4543 -18.3414 16.103 3.45246 -1.50772
lowerback 27.7031 -0.0263563 1.29282
upperback 3.56025 0.677119 2.51345
thorax -11.4137 0.321877 1.8586
lowerneck -28.7668 -5.21145 -7.09223
upperneck -6.43853 -4.90551 10.1442
head 2.78376 -1.76433 3.88273
rclavicle 2.78299e-015 -1.23246e-014
rhumerus -15.3674 1.05941 -70.0029
rradius 102.787
rwrist -4.72574
rhand -17.5644 27.2048
rfingers 7.12502
rthumb 8.6907 -2.59626
lclavicle 2.78299e-015 -1.23246e-014
lhumerus -9.84469 4.02562 77.9813
lradius 107.837
lwrist -0.145573
lhand -25.976 14.5947
lfingers 7.12502
lthumb 0.56895 44.5737
rfemur -59.896 -3.23766 24.5034
rtibia 83.6991
rfoot -30.3517 -16.7675
rtoes -10.2468
lfemur -63.0188 2.05581 -15.3284
ltibia 83.8699
lfoot -30.5856 0.647574
ltoes -14.7611
144
root 0.781012 14.5775 -18.2981 15.6426 3.8467 -1.47921
lowerback 27.4439 -0.0765485 1.35722
upperback 3.35209 0.644613 2.61279
thorax -11.5188 0.308148 1.94694
lowerneck -28.7724 -5.30605 -7.14459
upperneck -5.77329 -5.04661 9.94697
head 2.99527 -1.83437 3.80573
rclavicle 3.97569e-016 4.57205e-014
rhumerus -15.5836 0.743573 -68.0126
rradius 105.667
rwrist -3.52465
rhand -16.7745 27.1777
rfingers 7.12502
rthumb 9.45294 -2.59031
lclavicle 3.97569e-016 4.57205e-014
lhumerus -8.71003 3.97605 75.9082
lradius 110.417
lwrist -0.683709
lhand -23.5828 14.7828
lfingers 7.12502
lthumb 2.8803 44.7431
rfemur -58.3485 -3.31303 24.4532
rtibia 82.2591
rfoot -29.8432 -16.7886
rtoes -10.0772
lfemur -61.6091 1.53266 -15.1359
ltibia 82.4166
lfoot -30.0764 0.443512
ltoes -14.854
145
root 0.770339 14.7246 -18.248 14.7476 4.35245 -1.40785
lowerback 27.7593 -0.199156 1.42939
upperback 3.14324 0.538102 2.69901
thorax -11.9234 0.260552 2.05034
lowerneck -28.6544 -5.31516 -7.22494
upperneck -5.02267 -5.08116 9.8152
head 3.21474 -1.85031 3.76623
rclavicle -3.18055e-015 -1.11319e-014
rhumerus -15.9589 0.602302 -65.9243
rradius 108.546
rwrist -2.33971
rhand -16.0662 26.7296
rfingers 7.12502
rthumb 10.1363 -3.00625
lclavicle -3.18055e-015 -1.11319e-014
lhumerus -7.70283 3.69914 73.5381
lradius 112.656
lwrist 0.542217
lhand -25.4294 15.0821
lfingers 7.12502
lthumb 1.09684 45.059
rfemur -56.057 -3.60094 24.3095
rtibia 80.5334
rfoot -29.5785 -16.3891
rtoes -8.5753
lfemur -59.5407 0.86462 -14.9935
ltibia 80.7481
lfoot -29.5782 0.231035
ltoes -14.839
146
root 0.760292 14.8855 -18.1844 14.0128 4.91298 -1.3239
lowerback 27.6595 -0.354765 1.48696
upperback 2.97727 0.366774 2.75742
thorax -12.0593 0.183081 2.14931
lowerneck -28.545 -5.31344 -7.35625
upperneck -4.31784 -5.08955 9.84955
head 3.42866 -1.84373 3.79246
rclavicle 1.59028e-015 -5.24792e-014
rhumerus -16.1051 0.529178 -63.8159
rradius 111.119
rwrist -1.70921
rhand -15.3686 25.9364
rfingers 7.12502
rthumb 10.8092 -3.76541
lclavicle 1.59028e-015 -5.24792e-014
lhumerus -6.70424 3.90218 70.8943
lradius 114.868
lwrist 0.77344
lhand -24.2343 15.5679
lfingers 7.12502
lthumb 2.2511 45.5358
rfemur -53.7572 -3.99892 24.1851
rtibia 78.5905
rfoot -29.2138 -16.0597
rtoes -7.92985
lfemur -57.4618 0.168444 -14.8948
ltibia 78.8584
lfoot -28.9572 0.144561
ltoes -14.7613
147
root 0.746799 15.071 -18.113 13.3843 5.29756 -1.16673
lowerback 27.2951 -0.400034 1.3108
upperback 2.79632 0.257014 2.80294
thorax -12.0754 0.14444 2.34173
lowerneck -27.9988 -5.30805 -7.54259
upperneck -3.9613 -5.08817 9.95161
head 3.48197 -1.84447 3.85432
rclavicle -1.98785e-015 5.56597e-015
rhumerus -16.4239 0.539926 -61.4641
rradius 113.412
rwrist -1.7636
rhand -14.7877 25.7051
rfingers 7.12502
rthumb 11.3695 -3.96671
lclavicle -1.98785e-015 5.56597e-015
lhumerus -5.7915 4.03059 68.2415
lradius 116.896
lwrist 1.38053
lhand -24.5747 16.2336
lfingers 7.12502
lthumb 1.92236 46.2047
rfemur -51.4733 -4.36882 24.0003
rtibia 76.3454
rfoot -28.2747 -16.0995
rtoes -9.87298
lfemur -55.2463 -0.359279 -14.9178
ltibia 76.68
lfoot -28.236 -0.156496
ltoes -14.3745
148
root 0.734394 15.2768 -18.0373 12.7658 5.43727 -0.985448
lowerback 26.893 -0.334829 1.02071
upperback 2.58952 0.250077 2.80291
thorax -12.103 0.157049 2.50966
lowerneck -27.1701 -5.27454 -7.67587
upperneck -3.70719 -5.08221 10.0561
head 3.46459 -1.85289 3.91063
rclavicle -1.23246e-014 7.95139e-015
rhumerus -16.9433 0.766955 -58.8831
rradius 115.558
rwrist -2.16462
rhand -14.4946 25.4275
rfingers 7.12502
rthumb 11.6522 -4.2285
lclavicle -1.23246e-014 7.95139e-015
lhumerus -4.75246 4.16644 65.3715
lradius 118.781
lwrist 2.06818
lhand -25.1702 16.8431
lfingers 7.12502
lthumb 1.3472 46.8186
rfemur -49.1011 -4.56972 23.7448
rtibia 73.7924
rfoot -26.9737 -16.2257
rtoes -12.2359
lfemur -52.8569 -0.644464 -15.0611
ltibia 74.2061
lfoot -27.3775 -0.357318
ltoes -14.6885
